<?xml version="1.0" encoding="utf-8"?>
<svg viewBox="0 0 1231 468" xmlns="http://www.w3.org/2000/svg">
  <g transform="matrix(1, 0, 0, 1, -0.5, 0)">
    <path d="M 310.5 404 L 311.5 406 L 310.5 404 Z " style="fill: rgba(216, 211, 216, 1); stroke: rgba(216, 211, 216, 1);"/>
    <path d="M 313.5 409 L 316 412.5 L 314 411.5 L 313.5 409 Z " style="fill: rgba(216, 211, 216, 1); stroke: rgba(216, 211, 216, 1);"/>
    <path d="M 317.5 416 L 318.5 418 L 317.5 416 Z " style="fill: rgba(216, 211, 216, 1); stroke: rgba(216, 211, 216, 1);"/>
    <path d="M 321.5 423 L 322.5 425 L 321.5 423 Z " style="fill: rgba(216, 211, 216, 1); stroke: rgba(216, 211, 216, 1);"/>
    <path d="M 325.5 430 L 326.5 432 L 325.5 430 Z " style="fill: rgba(216, 211, 216, 1); stroke: rgba(216, 211, 216, 1);"/>
    <path d="M 328.5 435 L 329.5 437 L 328.5 435 Z " style="fill: rgba(216, 211, 216, 1); stroke: rgba(216, 211, 216, 1);"/>
    <path d="M 332.5 442 L 333.5 444 L 332.5 442 Z " style="fill: rgba(216, 211, 216, 1); stroke: rgba(216, 211, 216, 1);"/>
    <path d="M 336.5 449 L 337.5 451 L 336.5 449 Z " style="fill: rgba(216, 211, 216, 1); stroke: rgba(216, 211, 216, 1);"/>
    <path d="M 340.5 456 L 341.5 458 L 340.5 456 Z " style="fill: rgba(216, 211, 216, 1); stroke: rgba(216, 211, 216, 1);"/>
    <path d="M 343.5 461 L 346 464.5 L 344 463.5 L 343.5 461 Z " style="fill: rgba(216, 211, 216, 1); stroke: rgba(216, 211, 216, 1);"/>
    <path d="M 202 220 L 206 222.5 L 247 293.5 L 250 301 L 157.5 301 L 157 298.5 L 202 220 Z " style="fill: rgba(255, 255, 255, 1); stroke: rgba(255, 255, 255, 1);"/>
    <path d="M 213.5 0 L 214.5 2 L 213.5 0 Z " style="fill: rgba(58, 58, 233, 1); stroke: rgba(58, 58, 233, 1);"/>
    <path d="M 211.5 4 L 210.5 6 L 211.5 4 Z " style="fill: rgba(58, 58, 233, 1); stroke: rgba(58, 58, 233, 1);"/>
    <path d="M 224.5 19 L 225.5 21 L 224.5 19 Z " style="fill: rgba(58, 58, 233, 1); stroke: rgba(58, 58, 233, 1);"/>
    <path d="M 196.5 30 L 195.5 32 L 196.5 30 Z " style="fill: rgba(58, 58, 233, 1); stroke: rgba(58, 58, 233, 1);"/>
    <path d="M 239.5 45 L 240.5 47 L 239.5 45 Z " style="fill: rgba(58, 58, 233, 1); stroke: rgba(58, 58, 233, 1);"/>
    <path d="M 181.5 56 L 180.5 58 L 181.5 56 Z " style="fill: rgba(58, 58, 233, 1); stroke: rgba(58, 58, 233, 1);"/>
    <path d="M 166.5 82 L 165.5 84 L 166.5 82 Z " style="fill: rgba(58, 58, 233, 1); stroke: rgba(58, 58, 233, 1);"/>
    <path d="M 140.5 127 L 139.5 129 L 140.5 127 Z " style="fill: rgba(58, 58, 233, 1); stroke: rgba(58, 58, 233, 1);"/>
    <path d="M 125.5 153 L 124.5 155 L 125.5 153 Z " style="fill: rgba(58, 58, 233, 1); stroke: rgba(58, 58, 233, 1);"/>
    <path d="M 110.5 179 L 109.5 181 L 110.5 179 Z " style="fill: rgba(58, 58, 233, 1); stroke: rgba(58, 58, 233, 1);"/>
    <path d="M 95.5 205 L 94.5 207 L 95.5 205 Z " style="fill: rgba(58, 58, 233, 1); stroke: rgba(58, 58, 233, 1);"/>
    <path d="M 80.5 231 L 79.5 233 L 80.5 231 Z " style="fill: rgba(58, 58, 233, 1); stroke: rgba(58, 58, 233, 1);"/>
    <path d="M 50.5 283 L 49.5 285 L 50.5 283 Z " style="fill: rgba(58, 58, 233, 1); stroke: rgba(58, 58, 233, 1);"/>
    <path d="M 173.5 167 L 203 217.5 L 203 219.5 L 155.5 301 L 96 300.5 L 173.5 167 Z " style="fill: rgba(0, 253, 254, 1); stroke: rgba(0, 253, 254, 1);"/>
    <path d="M 277.5 111 L 278.5 113 L 277.5 111 Z " style="fill: rgba(227, 17, 242, 1); stroke: rgba(227, 17, 242, 1);"/>
    <path d="M 281.5 118 L 282.5 120 L 281.5 118 Z " style="fill: rgba(227, 17, 242, 1); stroke: rgba(227, 17, 242, 1);"/>
    <path d="M 292.5 137 L 293.5 139 L 292.5 137 Z " style="fill: rgba(227, 17, 242, 1); stroke: rgba(227, 17, 242, 1);"/>
    <path d="M 296.5 144 L 297.5 146 L 296.5 144 Z " style="fill: rgba(227, 17, 242, 1); stroke: rgba(227, 17, 242, 1);"/>
    <path d="M 307.5 163 L 308.5 165 L 307.5 163 Z " style="fill: rgba(227, 17, 242, 1); stroke: rgba(227, 17, 242, 1);"/>
    <path d="M 311.5 170 L 312.5 172 L 311.5 170 Z " style="fill: rgba(227, 17, 242, 1); stroke: rgba(227, 17, 242, 1);"/>
    <path d="M 322.5 189 L 323.5 191 L 322.5 189 Z " style="fill: rgba(227, 17, 242, 1); stroke: rgba(227, 17, 242, 1);"/>
    <path d="M 326.5 196 L 327.5 198 L 326.5 196 Z " style="fill: rgba(227, 17, 242, 1); stroke: rgba(227, 17, 242, 1);"/>
    <path d="M 337.5 215 L 338.5 217 L 337.5 215 Z " style="fill: rgba(227, 17, 242, 1); stroke: rgba(227, 17, 242, 1);"/>
    <path d="M 341.5 222 L 342.5 224 L 341.5 222 Z " style="fill: rgba(227, 17, 242, 1); stroke: rgba(227, 17, 242, 1);"/>
    <path d="M 352.5 241 L 353.5 243 L 352.5 241 Z " style="fill: rgba(227, 17, 242, 1); stroke: rgba(227, 17, 242, 1);"/>
    <path d="M 367.5 267 L 368.5 269 L 367.5 267 Z " style="fill: rgba(227, 17, 242, 1); stroke: rgba(227, 17, 242, 1);"/>
    <path d="M 382.5 293 L 383.5 295 L 382.5 293 Z " style="fill: rgba(227, 17, 242, 1); stroke: rgba(227, 17, 242, 1);"/>
    <path d="M 213.5 1 L 270 97.5 L 271 101.5 L 203.5 218 L 173.5 167 L 95.5 301 L 41.5 301 L 41 299.5 L 213.5 1 Z " style="fill: rgb(0, 0, 255); stroke: rgb(0, 0, 255);"/>
    <path d="M 271.5 101 L 372 274.5 L 386 301 L 251.5 301 L 249 298.5 L 204 220.5 L 204 216.5 L 271.5 101 Z " style="fill: rgb(255, 0, 255); stroke: rgb(255, 0, 255);"/>
    <path d="M 155 301 L 250.5 301 L 252 302.5 L 308 401 L 98 400.5 L 153 306.5 L 155 301 Z " style="fill: rgb(254, 254, 0); stroke: rgb(254, 254, 0);"/>
    <path d="M 251.5 301 L 386.5 301 L 389 303.5 L 445 400.5 L 308 401 L 253 305.5 L 251.5 301 Z " style="fill: rgb(254, 0, 0); stroke: rgb(254, 0, 0);"/>
    <path d="M 96.5 301 L 154.5 301 L 155 302.5 L 98 400.5 L 309 401 L 347 467.5 L 0.5 468 L 1 466.5 L 96.5 301 Z " style="fill: rgb(1, 254, 0); stroke: rgb(1, 254, 0);"/>
  </g>
  <path d="M 491.723 253.178 Q 484.692 253.178 481.213 249.003 Q 477.734 244.828 477.734 237.284 L 477.734 189.018 L 468.725 189.018 L 468.725 185.722 L 477.88 182.865 L 485.278 167.265 L 489.892 167.265 L 489.892 182.865 L 505.639 182.865 L 505.639 189.018 L 489.892 189.018 L 489.892 235.966 Q 489.892 240.727 492.052 243.144 Q 494.213 245.561 497.729 245.561 Q 501.977 245.561 508.056 244.389 L 508.056 249.15 Q 505.492 250.907 500.658 252.043 Q 495.824 253.178 491.723 253.178 Z M 557.563 181.034 L 557.563 199.638 L 554.413 199.638 L 550.165 191.581 Q 546.503 191.581 541.486 192.57 Q 536.469 193.559 532.807 195.17 L 532.807 246.586 L 544.599 248.417 L 544.599 251.713 L 511.933 251.713 L 511.933 248.417 L 520.649 246.586 L 520.649 187.992 L 511.933 186.161 L 511.933 182.865 L 532.001 182.865 L 532.66 191.435 Q 537.055 187.773 544.562 184.403 Q 552.069 181.034 556.464 181.034 Z M 586.635 160.38 Q 586.635 163.603 584.292 165.946 Q 581.948 168.29 578.652 168.29 Q 575.429 168.29 573.086 165.946 Q 570.742 163.603 570.742 160.38 Q 570.742 157.084 573.086 154.74 Q 575.429 152.397 578.652 152.397 Q 581.948 152.397 584.292 154.74 Q 586.635 157.084 586.635 160.38 Z M 585.903 246.586 L 597.695 248.417 L 597.695 251.713 L 562.026 251.713 L 562.026 248.417 L 573.745 246.586 L 573.745 187.992 L 564.003 186.161 L 564.003 182.865 L 585.903 182.865 Z M 634.612 181.327 Q 645.891 181.327 651.201 185.941 Q 656.511 190.556 656.511 200.077 L 656.511 246.586 L 665.081 248.417 L 665.081 251.713 L 646.184 251.713 L 644.792 244.828 Q 636.443 253.178 623.479 253.178 Q 605.828 253.178 605.828 232.67 Q 605.828 225.785 608.501 221.281 Q 611.174 216.776 617.034 214.396 Q 622.893 212.016 634.026 211.796 L 644.353 211.503 L 644.353 200.736 Q 644.353 193.632 641.753 190.263 Q 639.153 186.894 633.733 186.894 Q 626.409 186.894 620.33 190.336 L 617.839 198.905 L 613.738 198.905 L 613.738 183.891 Q 625.603 181.327 634.612 181.327 Z M 644.353 216.63 L 634.758 216.923 Q 624.944 217.289 621.465 220.732 Q 617.986 224.174 617.986 232.231 Q 617.986 245.121 628.459 245.121 Q 633.44 245.121 637.065 243.986 Q 640.691 242.851 644.353 241.093 Z" transform="matrix(2.005961, 0, 0, 1.938923, -485.811462, -151.809143)" style="white-space: pre; color: white;"/>
  <path d="M 884.053 206.231 Q 884.053 229.596 890.461 239.593 Q 896.87 249.591 910.786 249.591 Q 924.629 249.591 931.037 239.556 Q 937.446 229.522 937.446 206.231 Q 937.446 183.013 931.037 173.272 Q 924.629 163.531 910.786 163.531 Q 896.87 163.531 890.461 173.272 Q 884.053 183.013 884.053 206.231 Z M 859.736 206.231 Q 859.736 156.134 910.786 156.134 Q 935.981 156.134 948.872 168.841 Q 961.763 181.549 961.763 206.231 Q 961.763 231.207 948.725 244.061 Q 935.688 256.915 910.786 256.915 Q 885.957 256.915 872.847 244.097 Q 859.736 231.28 859.736 206.231 Z M 977.066 225.347 L 983.512 225.347 L 986.808 241.095 Q 989.884 244.683 996.109 247.1 Q 1002.335 249.517 1009 249.517 Q 1030.02 249.517 1030.02 232.232 Q 1030.02 226.812 1026.029 223.077 Q 1022.037 219.342 1013.468 216.412 Q 1000.87 212.237 995.34 209.637 Q 989.81 207.037 986.002 203.521 Q 982.193 200.006 979.923 194.989 Q 977.652 189.971 977.652 182.647 Q 977.652 169.683 986.478 162.908 Q 995.304 156.134 1012.296 156.134 Q 1024.601 156.134 1039.542 159.283 L 1039.542 182.647 L 1033.023 182.647 L 1029.727 169.171 Q 1022.257 163.751 1012.296 163.751 Q 1003.287 163.751 998.453 167.083 Q 993.619 170.416 993.619 177.301 Q 993.619 182.208 997.647 185.687 Q 1001.676 189.166 1010.245 191.876 Q 1027.018 197.369 1033.28 201.434 Q 1039.542 205.499 1042.838 211.505 Q 1046.134 217.511 1046.134 225.64 Q 1046.134 256.915 1009.293 256.915 Q 1000.87 256.915 992.118 255.487 Q 983.365 254.058 977.066 251.715 Z" transform="matrix(1.992789, 0, 0, 1.948605, -853.05127, -161.383194)" style="white-space: pre; color: white;"/>
</svg>
